<?xml version="1.0" standalone="no"?>
<!DOCTYPE svg PUBLIC "-//W3C//DTD SVG 20010904//EN"
 "http://www.w3.org/TR/2001/REC-SVG-20010904/DTD/svg10.dtd">
<svg version="1.0" xmlns="http://www.w3.org/2000/svg"
 width="450.000000pt" height="300.000000pt" viewBox="0 0 450.000000 300.000000"
 preserveAspectRatio="xMidYMid meet">

<g transform="translate(0.000000,300.000000) scale(0.100000,-0.100000)"
fill="#000000" stroke="none">
<path d="M2096 1852 c-2 -4 -9 -64 -15 -132 -7 -69 -14 -138 -16 -155 l-5 -30
20 21 c14 14 22 37 25 70 14 187 18 220 28 226 7 5 3 8 -10 8 -12 0 -24 -3
-27 -8z"/>
<path d="M2365 1800 c-5 -24 -27 -44 -103 -97 -121 -83 -116 -78 -105 -97 7
-14 32 1 148 90 77 58 144 110 149 115 18 17 -4 22 -28 5 -31 -20 -36 -20 -36
-1 0 27 -18 16 -25 -15z"/>
<path d="M2386 1693 c-3 -6 2 -14 10 -17 8 -3 14 -1 14 5 0 6 4 8 9 5 10 -7
41 3 41 13 0 11 -70 6 -74 -6z"/>
<path d="M1937 1489 c109 -108 111 -111 106 -149 -5 -36 -4 -38 15 -33 12 3
23 13 26 22 8 29 11 196 4 199 -21 6 -28 0 -28 -25 0 -38 -11 -74 -20 -71 -5
2 -51 40 -104 86 -53 45 -99 82 -103 82 -4 0 43 -50 104 -111z"/>
<path d="M2252 1523 c-33 -47 -37 -78 -13 -109 12 -15 21 -33 21 -40 0 -8 9
-14 20 -14 15 0 22 9 27 30 5 30 18 40 25 20 2 -7 21 -1 47 12 82 43 81 78 -1
101 -106 31 -104 31 -126 0z"/>
<path d="M1745 1450 c-7 -11 12 -50 25 -50 10 0 40 39 40 52 0 12 -58 10 -65
-2z"/>
<path d="M2707 1323 c-12 -11 -8 -43 6 -44 18 -2 51 2 56 7 2 2 -4 13 -14 24
-18 20 -36 25 -48 13z"/>
<path d="M2490 1284 c-17 -43 -8 -58 17 -33 16 16 43 4 43 -19 0 -10 -11 -25
-25 -32 -14 -8 -24 -19 -21 -26 3 -8 -3 -12 -14 -11 -10 1 -17 4 -15 7 2 4 -2
16 -11 28 -14 20 -15 20 -59 4 -29 -10 -44 -21 -41 -29 3 -7 2 -13 -3 -13 -5
0 -11 10 -15 23 -4 16 -8 19 -15 9 -7 -11 -9 -11 -14 1 -8 21 3 29 20 15 17
-13 26 -6 17 15 -3 9 -19 20 -35 26 -17 6 -42 20 -56 31 -15 11 -29 17 -32 12
-13 -18 -70 -52 -89 -52 -32 0 -52 -11 -52 -29 -1 -14 -2 -13 -11 2 -19 32
-46 -5 -54 -71 -3 -31 -12 -68 -20 -81 l-13 -24 -6 21 c-11 34 -26 26 -26 -13
0 -19 -4 -35 -10 -35 -5 0 -10 -7 -10 -16 0 -12 -6 -15 -25 -10 -28 7 -31 0
-9 -29 19 -25 119 -29 134 -5 8 12 10 12 10 1 0 -11 4 -11 23 2 22 14 30 47
15 58 -5 3 -9 30 -11 60 -2 53 -1 54 26 54 18 1 26 -3 23 -12 -3 -7 -8 -46
-12 -88 -5 -56 -10 -75 -21 -75 -8 0 -13 -6 -10 -12 2 -7 14 -12 26 -11 12 2
21 -3 21 -10 0 -21 42 -54 82 -65 24 -7 62 -7 115 0 82 11 316 13 395 2 l46
-6 12 54 c21 91 3 133 -31 72 -14 -26 -22 -29 -70 -32 l-55 -3 -48 104 -48
104 31 61 c17 34 31 63 31 66 0 3 -32 17 -73 30 -13 4 -20 -2 -27 -20z m-120
-228 c0 -2 -7 -9 -15 -16 -12 -10 -15 -10 -15 4 0 9 7 16 15 16 8 0 15 -2 15
-4z m138 -63 l23 -45 -38 7 c-21 4 -40 8 -41 10 -5 5 21 75 28 75 3 0 15 -21
28 -47z"/>
<path d="M3023 1293 c-7 -3 -13 -11 -13 -20 0 -10 -6 -12 -20 -8 -21 7 -28 -9
-9 -20 6 -4 8 -14 5 -22 -4 -9 -1 -13 6 -10 7 2 21 -2 31 -11 15 -14 17 -14
17 0 0 9 7 18 15 22 19 7 20 26 1 26 -8 0 -16 11 -18 23 -2 14 -8 22 -15 20z"/>
<path d="M1770 1158 c0 -6 3 -9 6 -5 4 3 13 -1 21 -9 9 -8 18 -12 21 -9 6 5
-27 34 -40 35 -5 0 -8 -5 -8 -12z"/>
<path d="M1880 926 c29 -18 80 -22 64 -6 -6 6 -28 13 -50 16 -39 5 -39 5 -14
-10z"/>
<path d="M1976 911 c-3 -5 1 -12 10 -15 25 -10 34 -7 34 9 0 16 -35 21 -44 6z"/>
</g>
</svg>
