<?xml version="1.0" standalone="no"?>
<!DOCTYPE svg PUBLIC "-//W3C//DTD SVG 20010904//EN"
 "http://www.w3.org/TR/2001/REC-SVG-20010904/DTD/svg10.dtd">
<svg version="1.0" xmlns="http://www.w3.org/2000/svg"
 width="912.000000pt" height="912.000000pt" viewBox="0 0 912.000000 912.000000"
 preserveAspectRatio="xMidYMid meet">

<g transform="translate(0.000000,912.000000) scale(0.100000,-0.100000)"
fill="#000000" stroke="none">
<path d="M7514 8379 c-39 -5 -110 -22 -159 -40 -75 -27 -99 -42 -167 -104 -87
-80 -104 -100 -150 -189 -16 -33 -39 -71 -49 -86 -13 -16 -23 -54 -29 -108 -5
-45 -12 -87 -15 -92 -3 -5 -12 -78 -20 -162 -17 -167 -13 -506 6 -678 19 -165
-25 -343 -107 -438 l-29 -33 -49 17 c-138 47 -366 -53 -476 -209 -58 -82 -75
-130 -66 -180 8 -44 62 -93 112 -103 52 -10 143 2 210 27 157 58 305 220 308
337 1 41 2 43 41 53 44 11 183 80 229 112 30 21 131 168 162 236 11 22 22 41
25 41 4 0 14 -19 24 -42 41 -105 126 -229 257 -376 63 -69 92 -93 189 -148
217 -125 254 -141 394 -170 188 -38 215 -43 264 -43 l43 -1 -52 56 c-56 63
-100 140 -100 178 0 14 -11 45 -24 70 -14 27 -27 73 -31 111 -11 99 12 343 57
620 52 312 59 457 30 625 -24 139 -82 297 -123 337 -16 15 -47 58 -69 94 -54
90 -128 156 -247 216 -133 68 -242 88 -389 72z m-930 -2121 l55 -173 -26 -20
c-84 -63 -255 -94 -327 -60 -47 22 -70 65 -63 118 6 46 85 166 134 206 38 30
153 101 164 101 4 0 32 -78 63 -172z"/>
<path d="M6358 6235 c-51 -27 -68 -49 -68 -90 0 -33 42 -75 75 -75 34 0 125
47 125 65 0 26 -19 26 -67 1 -88 -44 -120 12 -35 60 26 15 48 28 50 29 7 5
-12 35 -22 35 -6 -1 -32 -12 -58 -25z"/>
<path d="M5634 7225 c-106 -23 -317 -120 -339 -155 -10 -16 4 -12 33 9 54 38
190 101 268 123 60 17 105 22 189 22 61 0 99 3 85 7 -41 12 -170 8 -236 -6z"/>
<path d="M5720 7081 c-71 -22 -400 -221 -400 -242 0 -10 243 -97 342 -123 149
-38 240 -10 292 89 24 47 26 127 3 170 -45 87 -148 133 -237 106z m138 -32
c113 -55 132 -204 36 -288 -30 -27 -110 -59 -120 -48 -5 5 -34 279 -34 323 0
33 2 34 37 34 20 0 56 -10 81 -21z"/>
<path d="M5030 6848 c-27 -30 -26 -73 5 -103 30 -30 64 -32 99 -4 33 26 36 79
6 109 -27 27 -83 27 -110 -2z"/>
<path d="M4794 6758 c-22 -10 -44 -47 -44 -72 0 -7 10 -25 21 -40 45 -57 152
-10 135 58 -14 56 -62 79 -112 54z"/>
<path d="M4555 6618 c-50 -28 -58 -72 -22 -114 56 -65 159 -2 127 77 -11 25
-47 49 -73 49 -7 0 -21 -6 -32 -12z"/>
<path d="M4460 6365 c0 -35 -41 -75 -78 -75 -34 0 -72 36 -72 68 0 25 -1 25
-120 -8 -36 -10 -79 -21 -96 -25 -18 -3 -53 -19 -78 -36 -26 -16 -70 -41 -98
-55 -29 -15 -86 -50 -128 -80 -42 -29 -100 -65 -129 -79 -29 -15 -83 -54 -119
-87 -37 -34 -85 -72 -107 -86 -78 -48 -590 -582 -683 -712 -83 -115 -120 -160
-156 -191 -22 -19 -63 -71 -92 -116 -29 -44 -82 -117 -116 -160 -35 -43 -78
-104 -96 -134 -40 -71 -107 -173 -172 -266 -28 -40 -57 -89 -64 -110 -15 -40
-74 -149 -136 -248 -56 -90 -103 -188 -145 -300 -21 -55 -52 -127 -70 -160
-19 -33 -47 -96 -64 -140 -116 -310 -145 -390 -167 -470 -99 -343 -128 -650
-84 -865 37 -183 112 -289 248 -353 63 -30 74 -32 177 -32 68 0 137 7 180 17
39 9 90 20 115 23 28 4 55 15 70 30 16 15 47 29 80 35 44 8 62 18 90 49 19 21
58 50 85 64 28 14 91 56 140 94 50 38 104 77 120 88 17 10 63 47 102 82 40 35
77 63 82 63 13 0 301 288 331 331 13 18 47 57 75 84 48 48 145 161 265 310 30
37 65 80 77 94 l22 26 0 -165 c1 -158 12 -289 31 -375 25 -113 132 -372 160
-390 6 -3 20 -25 32 -48 27 -54 137 -169 208 -217 117 -79 203 -112 370 -140
244 -42 534 -17 840 70 343 99 715 250 979 399 50 28 99 51 109 51 10 0 29 12
43 26 13 14 85 62 159 106 74 44 178 110 230 147 52 37 149 105 214 152 66 46
140 102 165 125 25 22 78 66 118 96 86 66 171 139 267 230 39 37 95 86 124
109 28 23 52 48 52 54 0 6 -18 29 -41 50 -23 22 -87 92 -143 155 -55 63 -134
150 -175 193 -41 42 -72 79 -70 81 2 2 69 52 149 110 l145 107 17 -128 c22
-160 46 -280 63 -313 34 -65 104 -97 173 -78 49 14 98 67 107 116 11 66 -16
112 -129 218 l-101 96 74 -46 c88 -54 125 -63 174 -43 84 35 89 166 9 209 -29
15 -123 14 -255 -3 -49 -6 -91 -9 -93 -6 -9 9 144 105 203 127 45 17 92 24
208 30 163 8 214 22 303 79 49 31 136 112 134 125 -1 13 -606 626 -618 626 -6
0 -68 -54 -138 -120 -70 -66 -131 -120 -136 -120 -5 0 -42 -27 -81 -60 -59
-50 -78 -60 -103 -58 -37 4 -46 36 -22 72 8 13 103 99 210 191 108 92 196 173
196 179 0 6 -48 60 -107 119 l-108 107 -54 -43 c-30 -23 -91 -76 -137 -118
-46 -42 -104 -91 -129 -110 -26 -19 -68 -52 -94 -75 -44 -37 -134 -111 -231
-189 -21 -16 -93 -75 -161 -130 -243 -197 -572 -435 -909 -658 -199 -131 -499
-317 -512 -317 -5 0 16 33 46 72 70 93 115 168 176 293 149 307 182 623 85
817 -27 53 -23 53 45 -2 61 -51 82 -60 130 -60 55 0 91 20 137 77 21 27 75 89
121 138 131 142 223 267 229 313 7 52 -8 77 -91 152 -129 116 -172 176 -182
254 -6 44 -7 45 -28 31 -47 -33 -108 -17 -234 64 -127 82 -155 79 -251 -26
-29 -32 -85 -92 -125 -133 -141 -150 -215 -242 -222 -276 -15 -80 34 -169 120
-215 26 -14 60 -38 74 -53 l27 -27 -55 21 c-125 49 -214 63 -412 64 -121 0
-188 4 -188 11 0 6 11 30 24 55 13 25 26 73 30 109 4 36 14 78 23 95 11 21 14
44 9 80 -3 32 0 72 9 106 22 83 21 91 -14 79 -38 -13 -88 11 -97 46 -15 60 20
99 85 97 l34 -1 -7 77 c-14 151 -46 236 -131 342 -73 92 -122 121 -242 145
-31 6 -33 5 -33 -20z m-120 -175 c30 -30 27 -83 -6 -109 -35 -28 -69 -26 -99
4 -50 49 -19 125 50 125 22 0 43 -8 55 -20z m67 -232 c29 -27 31 -80 3 -108
-30 -30 -83 -27 -109 6 -28 35 -26 69 4 99 30 31 71 32 102 3z m214 -109 c46
-24 42 -105 -7 -128 -38 -17 -63 -13 -89 14 -30 30 -32 64 -4 99 22 28 64 35
100 15z m1213 -94 l61 -34 -9 -99 -9 -99 -60 -17 c-33 -9 -61 -15 -64 -13 -5
6 9 297 14 297 3 0 33 -16 67 -35z m316 -240 c24 -24 42 -46 39 -48 -2 -2 -64
-25 -138 -51 -147 -53 -149 -52 -153 17 -4 89 -12 80 92 103 52 12 100 23 105
23 6 1 31 -19 55 -44z m-660 -516 l43 -31 -6 -107 c-8 -125 -40 -273 -96 -441
-42 -124 -134 -329 -186 -410 -26 -41 -29 -43 -36 -23 -4 12 -17 28 -28 35
-19 12 -19 15 28 103 137 254 221 557 221 793 0 61 4 112 8 112 5 0 28 -14 52
-31z m1616 -458 c63 -38 70 -128 13 -175 -72 -61 -179 -14 -179 78 0 92 89
144 166 97z m-2583 -368 c3 -6 -18 -332 -22 -350 -2 -7 -71 13 -101 29 -156
85 -90 321 92 327 15 1 29 -2 31 -6z m2641 -289 c58 -63 106 -119 106 -124 0
-18 -383 -311 -671 -513 -285 -200 -482 -315 -662 -386 -104 -41 -170 -58
-347 -86 -188 -30 -213 -37 -272 -74 -47 -30 -52 -37 -168 -242 -43 -77 -112
-149 -171 -180 -61 -32 -174 -34 -215 -3 -52 38 -68 70 -72 142 -3 54 2 85 27
163 48 148 47 149 -59 80 -135 -89 -217 -99 -311 -37 -109 73 -147 243 -88
402 50 135 137 235 359 412 170 137 299 263 394 385 47 61 72 85 80 78 6 -5
25 -11 43 -13 l32 -3 -67 -90 c-93 -124 -253 -287 -407 -415 -144 -120 -248
-223 -289 -289 -86 -136 -86 -302 -1 -369 53 -42 93 -30 239 75 73 52 95 63
128 63 49 0 74 -13 92 -48 29 -56 29 -111 0 -217 -15 -55 -29 -121 -32 -147
-4 -46 -3 -48 23 -48 69 0 108 43 195 218 112 225 199 286 480 342 183 37 243
56 368 117 163 79 369 227 682 489 136 113 395 349 449 408 14 14 26 26 27 26
1 0 50 -52 108 -116z m837 96 c30 -16 52 -68 45 -108 -11 -69 -76 -105 -141
-78 -51 22 -257 157 -250 165 22 22 311 39 346 21z m-262 -124 c205 -180 241
-230 221 -306 -32 -118 -202 -135 -254 -25 -22 46 -84 415 -70 415 4 0 50 -38
103 -84z m-2746 -2143 c-7 -2 -19 -2 -25 0 -7 3 -2 5 12 5 14 0 19 -2 13 -5z"/>
<path d="M5423 5855 c-74 -31 -50 -139 32 -139 27 0 43 6 56 23 53 65 -11 148
-88 116z"/>
<path d="M5088 5800 c-24 -25 -29 -36 -23 -58 11 -43 34 -62 76 -62 70 0 103
77 54 125 -33 34 -70 32 -107 -5z"/>
<path d="M6354 5147 c-55 -47 -26 -127 46 -127 46 0 70 25 70 73 0 27 -7 41
-26 56 -34 27 -57 26 -90 -2z"/>
<path d="M6309 4831 c-32 -32 -35 -47 -18 -84 33 -73 139 -47 139 34 0 29 -6
42 -26 58 -36 28 -60 26 -95 -8z"/>
<path d="M6180 4545 c-46 -49 -19 -125 44 -125 64 0 100 54 72 109 -25 48 -79
56 -116 16z"/>
<path d="M5965 4310 c-28 -31 -24 -79 9 -107 36 -31 61 -29 97 6 34 35 36 59
8 95 -26 33 -86 37 -114 6z"/>
<path d="M5712 4163 c-7 -3 -19 -18 -28 -35 -13 -25 -13 -35 -3 -59 30 -74
130 -62 145 18 11 55 -55 100 -114 76z"/>
<path d="M8361 3268 c-52 -74 -137 -172 -266 -304 -38 -39 -90 -97 -115 -129
-24 -32 -87 -97 -139 -144 -135 -123 -198 -184 -181 -175 37 20 257 224 311
288 56 68 151 172 270 296 62 64 184 228 176 236 -3 3 -28 -28 -56 -68z"/>
<path d="M8037 3124 c-48 -52 -95 -110 -104 -128 -8 -18 -27 -40 -42 -49 -14
-8 -60 -49 -101 -89 -208 -203 -492 -437 -635 -523 -44 -27 -111 -69 -150 -95
-38 -26 -128 -77 -200 -114 -71 -36 -123 -66 -115 -66 22 0 246 117 325 170
39 26 107 70 151 97 152 94 366 270 589 484 55 53 115 106 133 118 18 13 45
42 59 65 14 22 51 68 82 101 93 99 115 125 105 125 -5 0 -49 -43 -97 -96z"/>
</g>
</svg>
