<?xml version="1.0" standalone="no"?>
<!DOCTYPE svg PUBLIC "-//W3C//DTD SVG 20010904//EN"
 "http://www.w3.org/TR/2001/REC-SVG-20010904/DTD/svg10.dtd">
<svg version="1.0" xmlns="http://www.w3.org/2000/svg"
 width="2000.000000pt" height="2000.000000pt" viewBox="0 0 2000.000000 2000.000000"
 preserveAspectRatio="xMidYMid meet">

<g transform="translate(0.000000,2000.000000) scale(0.100000,-0.100000)"
fill="#000000" stroke="none">
<path d="M14768 16514 c-103 -32 -176 -147 -165 -264 6 -72 24 -107 161 -314
l111 -170 0 -82 c0 -68 -4 -87 -21 -111 -37 -50 -81 -73 -141 -73 -119 0 -191
75 -232 243 -14 57 -22 73 -37 75 -19 3 -21 -8 -38 -150 -10 -84 -20 -170 -23
-190 -5 -33 -3 -38 13 -38 11 0 25 9 32 20 16 25 37 25 170 -1 91 -19 116 -20
175 -11 86 13 159 49 216 104 60 59 81 107 81 193 0 91 -28 152 -159 339 -54
78 -105 155 -114 172 -67 130 14 244 152 213 89 -20 141 -83 165 -203 10 -47
17 -62 32 -64 18 -3 21 11 42 155 12 87 22 161 22 166 0 14 -27 7 -45 -13 -23
-25 -59 -25 -155 0 -88 23 -176 24 -242 4z"/>
<path d="M11896 15709 c-72 -17 -159 -72 -236 -149 -251 -250 -314 -561 -139
-677 60 -40 152 -39 226 1 70 38 151 112 198 180 21 31 40 55 42 53 1 -2 -4
-35 -12 -73 -27 -126 -15 -176 44 -189 53 -12 123 28 211 122 73 77 88 103 59
103 -6 0 -36 -24 -67 -54 -66 -62 -93 -78 -112 -66 -19 11 -5 75 92 430 45
162 81 301 82 309 1 12 -10 14 -49 12 -64 -4 -82 -14 -90 -51 -8 -37 -18 -38
-33 -5 -24 52 -121 76 -216 54z m152 -55 c70 -46 55 -211 -38 -399 -98 -197
-206 -305 -308 -305 -37 0 -50 6 -78 34 -32 32 -34 38 -34 103 0 95 21 169 85
299 113 228 266 338 373 268z"/>
<path d="M12995 15388 c-13 -57 -235 -1104 -235 -1110 0 -5 33 -8 74 -8 l74 0
23 123 c34 184 19 168 151 165 l113 -3 25 -140 25 -140 79 -3 c61 -2 77 0 74
10 -3 7 -58 264 -124 570 l-119 558 -77 0 c-72 0 -78 -2 -83 -22z m135 -474
c22 -121 40 -226 40 -232 0 -8 -28 -12 -88 -12 -49 0 -91 2 -93 5 -3 2 15 115
40 250 28 151 49 239 53 228 4 -10 25 -117 48 -239z"/>
<path d="M13655 15301 c-52 -24 -103 -78 -111 -118 -5 -26 -1 -37 19 -57 32
-32 51 -33 82 -2 21 21 24 31 19 69 -5 37 -3 48 14 65 29 29 84 38 130 20 44
-16 61 -54 61 -136 1 -51 0 -54 -31 -66 -18 -8 -68 -28 -111 -46 -148 -61
-207 -125 -207 -222 0 -54 3 -62 38 -100 33 -35 45 -41 89 -45 56 -6 130 22
188 70 l29 25 18 -39 c9 -22 28 -44 42 -50 36 -17 91 -3 131 33 37 32 48 66
18 53 -43 -18 -61 -17 -77 6 -13 20 -16 55 -16 224 0 188 -1 204 -22 245 -32
64 -87 90 -188 90 -52 0 -87 -6 -115 -19z m215 -371 c0 -114 -1 -122 -24 -145
-28 -28 -95 -48 -131 -39 -38 9 -75 59 -75 100 0 70 49 125 155 176 33 15 63
28 68 28 4 0 7 -54 7 -120z"/>
<path d="M14945 14633 c-71 -26 -120 -67 -150 -126 -46 -94 -27 -179 52 -233
l32 -21 -39 -29 c-38 -28 -70 -71 -70 -93 0 -6 9 -20 19 -30 20 -20 19 -20
-30 -52 -139 -89 -146 -221 -15 -288 89 -46 272 -30 356 30 48 35 80 94 80
149 0 82 -44 128 -173 179 -89 36 -127 58 -127 76 0 25 36 45 81 45 158 0 279
105 279 242 0 58 0 58 30 58 27 0 30 3 30 30 0 29 -2 30 -44 30 -28 0 -59 8
-81 22 -51 30 -162 35 -230 11z m162 -39 c24 -24 25 -30 21 -97 -8 -121 -68
-214 -145 -224 -82 -11 -122 68 -89 179 19 67 51 115 95 145 45 31 85 29 118
-3z m-159 -566 c100 -41 128 -61 142 -103 15 -45 -6 -90 -57 -125 -30 -20 -51
-26 -115 -29 -90 -4 -127 8 -163 51 -20 24 -25 41 -25 84 0 51 3 58 46 104 56
60 68 61 172 18z"/>
<path d="M7040 14499 c0 -6 27 -40 60 -77 217 -243 415 -559 506 -804 21 -56
34 -78 47 -78 25 0 21 22 -24 134 -97 243 -280 528 -492 769 -54 60 -97 86
-97 56z"/>
<path d="M11700 14197 c0 -2 -22 -129 -50 -283 -27 -153 -57 -321 -66 -371
l-16 -93 -213 0 c-183 0 -219 -3 -266 -19 -296 -104 -596 -344 -788 -630 -38
-55 -41 -65 -29 -78 13 -13 19 -8 49 39 168 262 460 505 741 617 l76 31 212 0
211 0 -6 -32 c-3 -18 -53 -298 -110 -622 -58 -324 -103 -591 -101 -593 8 -8
272 -51 278 -45 3 4 43 216 88 472 45 256 83 466 85 468 1 1 67 -9 146 -23
210 -37 310 -31 420 25 94 49 182 160 221 281 l22 69 2280 -1 c1255 0 2277 -2
2271 -5 -5 -2 -49 -15 -97 -28 -107 -31 -268 -101 -385 -168 -422 -240 -730
-680 -867 -1241 -87 -352 -116 -719 -116 -1468 0 -625 7 -736 150 -2309 80
-886 128 -1438 145 -1680 29 -425 37 -595 42 -920 7 -428 0 -541 -52 -846
-125 -738 -338 -1290 -663 -1724 -106 -142 -343 -380 -478 -481 -454 -341
-1069 -568 -1776 -656 -130 -16 -244 -18 -1243 -18 l-1100 0 -137 36 c-357 96
-589 217 -778 409 -148 149 -223 298 -265 525 -19 101 -17 348 3 398 l12 27
655 0 655 0 0 55 c0 84 -28 266 -56 363 -49 168 -123 264 -248 323 -101 47
-163 55 -344 41 -87 -7 -355 -23 -597 -37 -242 -13 -468 -26 -502 -29 -35 -2
-63 -2 -63 0 0 2 20 31 44 66 126 181 278 442 404 693 287 575 467 1150 531
1705 16 134 5 1178 -18 1760 -30 749 -40 1022 -47 1325 -6 256 -11 295 -37
295 -13 0 -2 -401 48 -1740 26 -691 37 -1210 31 -1375 -20 -494 -125 -958
-342 -1508 -73 -186 -278 -603 -389 -792 -77 -132 -230 -370 -267 -416 -11
-14 -65 -19 -358 -33 -392 -19 -1351 -49 -1357 -42 -5 5 -16 163 -38 536 -9
146 -20 294 -24 330 -4 36 -9 135 -10 220 -1 85 -6 218 -12 295 -35 488 -226
1497 -344 1823 -16 43 -21 70 -15 76 6 6 10 47 10 92 0 69 4 91 25 130 29 54
31 96 10 174 -18 68 -18 117 -1 195 29 128 292 1011 385 1290 62 188 91 307
91 374 l0 39 93 7 c190 14 488 91 667 172 36 17 121 72 189 123 233 174 869
691 993 807 52 49 115 85 251 141 16 7 27 19 27 31 0 37 57 45 315 46 132 1
248 5 258 10 25 11 42 44 28 58 -6 6 -43 19 -83 29 -109 27 -109 27 -38 52
162 57 243 126 196 166 -12 9 -32 8 -95 -5 -44 -9 -106 -15 -137 -13 l-58 3
87 43 c94 46 203 138 213 178 4 14 1 31 -6 39 -25 30 -84 17 -237 -49 -107
-47 -156 -63 -175 -59 -16 3 -28 9 -28 14 0 10 51 45 175 122 132 81 180 140
155 187 -16 30 -67 26 -135 -11 -65 -34 -391 -179 -405 -179 -4 0 -2 21 6 47
22 72 18 150 -11 211 -36 77 -58 70 -90 -28 -27 -84 -58 -139 -120 -215 -32
-38 -78 -111 -102 -161 -36 -75 -47 -91 -62 -87 -15 4 -24 -5 -37 -34 -27 -58
-161 -183 -337 -314 l-158 -118 -63 31 -63 31 -54 -40 c-121 -89 -240 -155
-357 -199 -210 -79 -744 -128 -1193 -109 l-175 7 4 113 c6 161 -10 202 -86
214 l-37 6 -3 81 -3 80 75 13 c128 21 186 82 186 197 0 69 -20 142 -79 286
-38 94 -39 98 -25 138 8 23 17 62 21 85 9 67 -11 81 -133 88 l-99 6 -50 54
c-27 29 -83 90 -123 135 -86 96 -109 110 -211 127 l-76 13 92 -1 c87 -2 94 -1
118 24 75 74 37 270 -74 388 -81 86 -148 115 -266 116 -86 0 -180 -19 -244
-49 -14 -6 -53 -38 -87 -71 -56 -54 -62 -65 -68 -112 -6 -47 0 -79 28 -144 5
-12 -8 -20 -61 -39 -86 -29 -122 -47 -151 -74 -28 -25 -62 -88 -62 -114 0 -11
-32 -46 -80 -86 -92 -77 -153 -149 -186 -221 -25 -55 -48 -181 -42 -226 3 -16
3 -29 1 -29 -1 0 -25 16 -51 35 -154 110 -401 172 -587 146 -174 -24 -283
-110 -389 -307 -74 -137 -106 -177 -159 -203 -88 -43 -210 -20 -239 44 -10 23
-7 35 28 102 33 65 39 86 39 139 0 68 -15 98 -69 138 -23 18 -42 21 -129 21
-87 0 -109 -3 -150 -24 -141 -69 -236 -252 -268 -515 -49 -402 176 -802 488
-867 196 -40 408 44 594 237 126 131 216 281 354 589 80 179 115 229 187 266
83 43 216 31 355 -31 61 -27 77 -40 99 -77 51 -87 133 -157 256 -217 169 -83
265 -109 415 -110 87 -1 123 -4 123 -13 0 -6 2 -18 5 -25 4 -9 -7 -18 -30 -27
-24 -8 -37 -20 -41 -38 -11 -41 3 -155 31 -262 l27 -101 -37 -42 c-74 -87
-123 -230 -144 -418 -6 -52 -16 -203 -21 -335 -24 -544 -25 -556 -53 -610 -32
-65 -126 -205 -321 -485 -87 -123 -183 -265 -214 -315 -94 -151 -136 -306 -98
-361 13 -18 11 -28 -19 -99 -18 -44 -31 -83 -29 -86 2 -4 -19 -49 -47 -100
-28 -52 -126 -236 -217 -409 -174 -332 -315 -583 -329 -587 -4 -1 -37 48 -73
110 -104 178 -261 408 -369 540 -398 486 -459 568 -473 631 -8 38 -3 60 41
197 27 85 52 170 56 191 19 100 -89 190 -409 340 -435 205 -644 288 -720 288
-78 0 -126 -54 -95 -106 8 -12 122 -159 254 -325 349 -439 370 -469 487 -676
188 -334 504 -942 582 -1120 95 -218 468 -790 613 -942 l42 -43 64 4 c89 5
189 59 340 182 188 154 580 492 805 695 112 101 205 182 207 180 2 -2 28 -67
58 -144 53 -136 250 -600 306 -720 16 -33 100 -211 188 -395 243 -509 266
-575 267 -775 0 -74 -7 -180 -17 -245 -9 -63 -22 -186 -29 -272 l-12 -158
-155 0 c-306 0 -733 33 -1271 96 -682 81 -696 82 -940 80 -194 -2 -236 -6
-305 -24 -223 -61 -393 -209 -505 -443 -63 -132 -81 -218 -87 -406 l-6 -163
-797 0 c-438 0 -800 -3 -803 -7 -4 -3 -2 -12 4 -20 9 -11 154 -13 809 -13
l798 0 6 -48 c30 -211 167 -559 280 -709 124 -165 329 -300 566 -373 199 -62
158 -60 1473 -60 l1200 0 68 -25 c38 -13 99 -27 136 -31 82 -8 80 -7 221 -106
143 -101 368 -212 461 -229 138 -24 233 4 217 64 -3 14 -37 59 -76 100 -50 53
-80 97 -105 151 l-34 75 2612 4 c2847 3 2637 -1 2986 58 238 40 589 135 796
216 511 201 896 470 1187 832 l61 76 1671 5 c1581 5 1671 6 1674 23 3 16 -81
17 -1652 17 -911 0 -1656 1 -1656 3 0 2 29 48 65 103 81 122 227 409 288 564
157 402 285 958 317 1380 18 248 8 790 -25 1245 -41 565 -88 1119 -155 1830
-11 116 -22 235 -25 265 -3 30 -14 150 -25 265 -11 116 -20 222 -20 238 l0 27
805 0 c550 0 821 4 857 11 143 30 247 122 337 298 99 194 240 563 228 596 -6
13 -49 15 -338 15 -292 0 -330 2 -325 15 13 35 252 773 298 920 190 614 315
1122 369 1497 24 166 28 438 9 563 -45 294 -195 492 -415 550 -52 13 -345 15
-2543 15 -2362 0 -2484 1 -2477 18 4 9 9 67 12 127 12 255 -78 406 -287 486
-28 11 -178 42 -333 69 -273 48 -307 54 -307 47z m410 -278 c123 -24 197 -61
227 -114 26 -46 31 -142 13 -255 -18 -111 10 -100 -249 -100 -125 0 -230 2
-233 5 -2 3 6 62 18 133 13 70 33 180 45 244 l21 117 31 -5 c18 -4 75 -14 127
-25z m210 -513 c0 -15 -34 -79 -57 -106 -38 -46 -96 -70 -169 -70 -63 0 -244
27 -256 38 -4 4 -2 37 5 75 l11 67 233 0 c128 0 233 -2 233 -4z m5697 -573
c14 -50 7 -344 -11 -478 -67 -504 -230 -1101 -636 -2332 -191 -576 -204 -623
-204 -728 -1 -101 24 -172 82 -237 l44 -48 -744 2 -743 3 -11 125 c-7 69 -15
168 -18 220 -4 52 -11 145 -16 205 -26 321 -32 579 -27 1102 6 549 15 726 53
988 30 216 88 443 156 615 72 183 213 423 319 544 l41 46 854 0 854 0 7 -27z
m-11690 -852 c25 -14 83 -72 143 -143 56 -65 115 -125 132 -134 18 -9 71 -19
122 -23 l91 -6 -2 -40 c-2 -22 -10 -60 -18 -85 -15 -45 -15 -48 15 -121 93
-224 111 -320 70 -386 -27 -46 -57 -61 -144 -78 -68 -13 -88 -13 -169 0 -113
18 -137 19 -137 2 0 -7 41 -53 90 -102 50 -49 90 -92 90 -96 0 -3 -105 -9
-232 -13 -389 -13 -350 -15 -359 17 -6 24 -4 29 24 44 99 51 157 133 157 224
0 30 -6 63 -13 73 -11 16 -18 17 -53 7 -57 -16 -132 -13 -164 5 -48 29 -74
109 -50 154 20 37 109 47 207 23 17 -4 27 3 43 29 29 48 26 91 -7 113 -44 29
-114 97 -129 127 -13 25 -12 33 12 95 24 59 27 84 29 194 1 69 5 131 10 138 5
10 32 12 104 9 78 -3 104 -8 138 -27z m3271 -419 c3 -40 -2 -80 -17 -130 -24
-79 -21 -97 14 -88 32 8 386 166 459 205 62 33 87 30 67 -7 -10 -19 -64 -57
-234 -166 -49 -31 -91 -66 -96 -78 -17 -45 17 -71 89 -70 20 0 92 25 173 61
124 55 177 72 177 55 0 -35 -89 -101 -234 -174 -128 -63 -143 -85 -70 -96 49
-7 216 1 269 13 26 5 28 4 17 -9 -20 -24 -124 -67 -224 -93 -135 -34 -130 -48
32 -93 92 -26 101 -31 76 -37 -16 -5 -113 -5 -215 -2 -155 6 -195 4 -241 -9
-92 -27 -86 -30 -211 109 -63 71 -120 139 -128 151 -12 20 -9 32 32 118 26 55
68 124 101 164 57 69 126 192 126 224 0 9 3 20 7 24 14 14 27 -16 31 -72z
m-268 -558 c69 -80 80 -98 67 -105 -28 -16 -77 -60 -77 -70 0 -19 47 -8 82 21
l36 30 47 -51 c26 -28 43 -54 39 -58 -5 -4 -34 -18 -64 -31 -78 -32 -127 -65
-190 -125 -108 -103 -702 -587 -970 -789 -63 -48 -143 -100 -176 -116 -119
-56 -359 -131 -497 -155 -197 -34 -417 -22 -1105 61 -122 15 -225 24 -228 21
-4 -3 -4 -12 -1 -20 3 -9 49 -19 149 -31 233 -29 232 -17 5 -131 -178 -89
-230 -125 -179 -125 20 0 334 152 400 194 41 26 72 34 72 18 0 -15 -371 -375
-470 -457 -106 -87 -119 -102 -95 -111 29 -12 258 188 504 441 l125 127 90
-11 c50 -6 169 -16 264 -23 l172 -12 0 -42 c0 -71 -26 -173 -110 -429 -69
-210 -167 -538 -331 -1104 -50 -171 -58 -249 -34 -337 38 -142 -11 -209 -173
-234 -169 -27 -472 41 -1132 252 -403 128 -440 147 -440 218 0 55 36 156 87
240 24 41 111 172 193 290 232 334 345 503 369 553 24 50 28 101 51 624 12
275 33 460 62 548 58 175 153 261 318 289 31 6 33 5 15 -6 -56 -37 -128 -117
-156 -173 -35 -71 -50 -186 -30 -224 22 -40 34 -18 36 65 2 105 28 165 105
238 148 141 323 148 790 31 206 -52 288 -63 510 -71 196 -8 425 8 534 36 111
28 251 92 404 185 135 82 467 313 580 404 34 28 63 51 65 51 2 0 48 -56 103
-125 54 -68 104 -125 111 -125 29 0 22 26 -23 82 l-48 61 30 25 c75 63 124
114 124 127 0 29 -31 14 -101 -50 -39 -36 -74 -65 -78 -65 -4 0 -22 20 -41 45
-19 25 -38 45 -42 45 -5 0 27 36 71 81 45 44 81 84 81 90 0 22 22 3 100 -87z
m-2579 -313 c16 -20 19 -39 18 -125 0 -55 -4 -120 -7 -142 l-7 -41 -94 23
c-145 35 -225 39 -382 16 -74 -11 -162 -30 -195 -42 -32 -11 -63 -22 -68 -23
-18 -4 -66 193 -66 273 0 57 -1 57 129 70 143 15 166 16 419 15 233 0 234 0
253 -24z m-4066 -2016 c158 -63 650 -290 717 -331 87 -53 156 -110 173 -145
15 -29 15 -36 -9 -117 -13 -48 -29 -99 -35 -114 l-10 -28 -192 95 c-106 52
-197 95 -203 95 -6 0 -43 -29 -82 -65 l-71 -64 -24 32 c-13 18 -127 163 -254
322 -128 160 -240 303 -250 319 -18 28 -18 29 1 43 30 23 114 8 239 -42z m639
-679 c66 -31 134 -65 152 -76 l32 -20 -14 -53 c-12 -47 -12 -88 3 -140 2 -10
54 -84 115 -164 61 -81 106 -149 100 -151 -33 -11 -158 -110 -203 -161 l-53
-61 -49 93 c-129 240 -314 569 -358 634 l-48 72 61 59 62 60 40 -18 c23 -10
95 -43 160 -74z m1867 -318 c30 -12 56 -23 58 -24 7 -6 -33 -144 -42 -144 -8
0 -110 54 -126 66 -5 4 43 124 50 124 4 0 31 -10 60 -22z m259 -88 c74 -23
139 -45 143 -50 5 -4 1 -33 -8 -65 -12 -38 -14 -60 -7 -67 17 -17 30 -1 47 57
8 31 21 55 29 55 7 0 79 -20 160 -45 81 -25 191 -57 244 -71 53 -14 98 -28
100 -29 2 -2 -8 -25 -22 -52 -15 -31 -21 -54 -16 -63 12 -20 31 -1 59 58 l23
48 101 -23 c208 -47 403 -51 487 -10 l30 15 0 -64 c0 -61 -1 -65 -27 -75 -88
-34 -434 -28 -707 12 -273 39 -463 95 -734 216 -77 35 -102 50 -97 61 3 8 13
44 22 79 9 38 20 62 27 60 6 -2 72 -23 146 -47z m-770 -3569 c96 -12 227 -28
290 -36 505 -64 1035 -106 1510 -118 l85 -2 13 -94 c19 -135 149 -523 327
-981 67 -171 84 -255 85 -411 0 -103 -2 -118 -20 -134 -32 -29 -118 -159 -150
-227 -19 -41 -30 -79 -30 -108 l0 -45 -1188 -3 c-1172 -4 -1188 -4 -1288 17
-295 61 -538 194 -680 374 -128 162 -248 459 -290 716 -16 102 -18 313 -3 397
38 219 164 434 321 550 72 53 184 100 285 119 112 21 500 13 733 -14z m5393
-80 c-253 -132 -403 -279 -504 -495 -69 -147 -82 -215 -83 -416 -1 -159 2
-185 27 -285 50 -202 172 -402 320 -526 152 -127 356 -237 572 -308 l120 -40
-1387 -1 c-764 -1 -1400 -2 -1415 -3 -27 -1 -31 7 -120 214 -169 394 -189 473
-228 894 -3 33 -10 101 -16 150 -18 169 -68 739 -65 742 2 2 155 8 342 13 463
14 1061 37 1404 55 157 8 341 18 410 21 69 4 242 15 385 24 143 9 280 18 305
18 l45 2 -112 -59z m-2714 -1185 c19 -175 25 -202 74 -347 l54 -158 -61 -31
c-34 -18 -81 -47 -107 -66 l-45 -33 -80 28 c-78 28 -175 68 -183 76 -2 3 2 11
9 20 10 12 11 50 7 163 -7 169 -18 223 -81 386 -26 65 -46 122 -46 127 0 5 55
9 123 10 67 0 163 6 212 13 50 6 93 9 96 6 4 -3 16 -90 28 -194z m151 -555 c0
-11 154 -377 204 -487 25 -53 57 -98 106 -151 45 -49 67 -80 61 -86 -17 -17
-95 -19 -170 -3 -104 22 -273 106 -439 219 -78 53 -152 98 -164 101 -13 2 -58
9 -101 15 -117 16 -177 52 -177 105 0 41 46 136 104 214 51 69 52 69 126 32
64 -32 181 -70 214 -70 19 0 39 7 47 16 16 20 159 104 176 104 7 0 13 -4 13
-9z"/>
<path d="M6309 11835 c-32 -17 -55 -63 -39 -79 8 -8 19 -2 38 22 24 28 33 32
75 32 33 0 47 4 47 14 0 28 -76 35 -121 11z"/>
<path d="M6481 11664 c-14 -23 -37 -42 -66 -55 -44 -20 -61 -49 -28 -49 57 0
154 87 139 125 -9 24 -23 18 -45 -21z"/>
<path d="M6751 11383 c-28 -20 -113 -22 -135 -4 -19 16 -48 7 -40 -12 21 -56
224 -43 224 14 0 23 -17 24 -49 2z"/>
<path d="M6120 9315 c-19 -7 -45 -14 -56 -14 -28 -1 -51 -28 -37 -42 8 -8 28
-6 70 6 76 22 93 32 87 50 -7 18 -18 18 -64 0z"/>
<path d="M5968 8879 c-109 -74 -142 -109 -103 -109 18 0 223 134 242 158 14
16 9 32 -10 32 -7 0 -65 -37 -129 -81z"/>
<path d="M7638 14009 c-2 -7 21 -48 51 -93 90 -135 176 -330 225 -516 17 -63
28 -86 41 -89 16 -3 17 2 12 42 -19 136 -138 424 -241 582 -52 79 -79 102 -88
74z"/>
<path d="M6180 13344 c0 -9 17 -37 39 -63 94 -113 222 -352 276 -516 30 -91
39 -105 57 -87 26 26 -90 308 -195 479 -98 157 -177 241 -177 187z"/>
<path d="M13496 13241 c-91 -25 -214 -88 -297 -150 -156 -118 -332 -337 -396
-492 -79 -189 -83 -418 -8 -544 34 -58 117 -132 183 -163 52 -25 68 -27 177
-27 100 0 132 4 190 24 131 44 287 143 398 253 l50 49 -21 21 -20 20 -69 -55
c-168 -135 -279 -183 -406 -175 -116 8 -207 66 -247 160 -28 65 -29 179 -3
259 16 48 21 54 48 57 349 30 714 218 811 417 25 52 29 71 29 146 0 76 -3 90
-27 126 -42 64 -101 87 -223 90 -73 2 -118 -2 -169 -16z m177 -72 c41 -32 52
-89 33 -168 -36 -146 -185 -298 -379 -386 -56 -26 -247 -79 -255 -71 -14 15
96 255 162 354 88 132 208 245 293 277 57 21 116 19 146 -6z"/>
<path d="M9615 13019 c-4 -5 18 -67 48 -137 87 -201 127 -329 167 -524 11 -55
29 -74 45 -49 15 24 -64 322 -126 479 -76 192 -116 261 -134 231z"/>
<path d="M9810 12968 c0 -7 21 -44 46 -83 66 -101 184 -349 242 -505 96 -259
179 -577 223 -852 15 -95 28 -149 37 -153 25 -9 25 29 -2 189 -67 404 -201
836 -356 1147 -83 166 -148 269 -171 269 -10 0 -19 -6 -19 -12z"/>
<path d="M12335 12796 c-79 -25 -131 -60 -210 -140 -93 -94 -139 -174 -161
-277 -24 -117 0 -216 68 -275 52 -45 96 -57 197 -52 110 6 176 37 276 130 135
126 201 261 193 398 -7 117 -59 195 -146 220 -50 14 -168 12 -217 -4z m180
-46 c71 -67 55 -257 -37 -447 -84 -174 -202 -255 -302 -208 -104 49 -103 231
1 444 53 108 145 212 204 230 48 15 107 6 134 -19z"/>
<path d="M14110 12771 c0 -5 -44 -54 -97 -108 -85 -87 -111 -106 -200 -152
-78 -39 -103 -57 -103 -71 0 -18 7 -20 85 -20 47 0 85 -3 85 -6 0 -4 -36 -136
-79 -293 -155 -557 -153 -551 -147 -586 10 -51 47 -75 116 -75 49 0 65 5 116
38 74 48 224 228 209 252 -12 19 -23 10 -87 -66 -74 -88 -121 -122 -143 -104
-8 7 -15 24 -15 38 0 14 47 198 105 410 58 211 105 386 105 388 0 2 47 4 104
4 l104 0 4 35 c2 20 2 38 -1 40 -2 3 -44 5 -93 5 -48 0 -88 3 -88 8 0 4 14 57
30 117 36 132 37 155 10 155 -11 0 -20 -4 -20 -9z"/>
<path d="M4989 12390 c-68 -36 -194 -83 -459 -170 -188 -62 -266 -93 -268
-104 -2 -11 4 -16 18 -16 30 0 495 154 634 211 130 53 161 73 136 89 -19 12
-19 13 -61 -10z"/>
<path d="M5062 12249 c-320 -131 -789 -268 -1194 -349 -39 -8 -58 -16 -58 -26
0 -8 6 -17 14 -20 18 -7 333 65 581 133 386 105 825 267 825 304 0 11 -6 19
-12 18 -7 0 -77 -27 -156 -60z"/>
<path d="M14490 11538 c-72 -28 -157 -113 -190 -190 -14 -32 -28 -58 -31 -58
-3 0 -12 38 -19 84 -7 47 -16 89 -20 95 -4 8 -47 3 -134 -14 -71 -13 -130 -26
-132 -27 -1 -2 26 -159 62 -348 35 -190 96 -513 134 -719 38 -206 72 -376 75
-379 9 -10 265 41 264 52 0 6 -44 245 -98 531 -77 410 -95 525 -87 545 26 65
62 106 119 134 51 25 70 29 137 29 l77 -1 -14 71 c-7 40 -19 105 -25 145 -11
68 -13 72 -37 71 -14 0 -51 -10 -81 -21z"/>
<path d="M14805 11271 c-108 -22 -131 -29 -133 -45 -4 -17 0 -18 38 -12 101
16 159 -31 209 -169 68 -188 178 -663 167 -720 -17 -84 -225 -325 -281 -325
-7 0 -32 13 -56 30 -85 57 -164 33 -164 -51 0 -86 91 -123 189 -75 168 82 460
471 671 893 90 180 119 269 119 366 1 76 0 79 -32 108 -26 24 -41 29 -81 29
-60 0 -81 -20 -81 -77 0 -35 5 -45 38 -72 20 -17 45 -37 55 -46 38 -33 14
-131 -73 -305 -49 -98 -158 -288 -169 -295 -5 -2 -18 57 -30 131 -34 202 -116
500 -171 617 -27 57 -27 57 -215 18z"/>
<path d="M12954 10651 c-65 -11 -129 -54 -154 -105 -20 -42 -20 -47 -5 -75 13
-25 22 -31 49 -31 48 0 70 29 62 79 -8 50 -1 68 35 86 44 23 103 19 136 -9 26
-23 28 -29 28 -101 l0 -77 -80 -32 c-205 -84 -265 -139 -265 -247 0 -76 49
-133 123 -144 53 -8 112 13 178 61 44 32 50 34 55 17 20 -63 51 -84 110 -76
40 6 104 58 104 84 0 19 -1 19 -22 5 -27 -19 -52 -20 -66 -3 -7 8 -13 91 -15
223 -3 231 -9 259 -65 306 -17 14 -54 31 -82 37 -55 12 -64 12 -126 2z m156
-391 c0 -107 -2 -122 -20 -140 -27 -27 -62 -40 -106 -40 -46 0 -70 14 -89 50
-31 60 -13 114 56 174 35 30 123 73 152 75 4 1 7 -53 7 -119z"/>
<path d="M10012 10213 c2 -13 31 -22 138 -40 74 -13 159 -30 188 -39 52 -14
72 -13 72 7 0 18 -65 38 -205 64 -165 30 -198 32 -193 8z"/>
<path d="M13588 10021 c-142 -57 -309 -235 -381 -407 -72 -171 -55 -316 46
-398 35 -28 45 -31 110 -31 55 0 83 6 118 23 57 28 155 116 204 183 21 27 39
49 40 47 2 -2 -3 -32 -11 -68 -19 -92 -18 -133 7 -164 43 -54 131 -23 235 84
74 76 88 95 79 111 -4 6 -24 -6 -48 -28 -100 -92 -147 -113 -147 -65 0 33 132
540 186 716 6 18 2 19 -56 13 -34 -4 -66 -9 -70 -12 -5 -3 -12 -21 -16 -40
l-6 -35 -38 42 -38 43 -83 3 c-64 1 -95 -3 -131 -17z m198 -39 c33 -26 44 -56
44 -119 0 -86 -23 -164 -85 -288 -109 -220 -230 -324 -341 -293 -99 27 -101
199 -5 403 69 148 165 266 244 300 45 20 117 18 143 -3z"/>
<path d="M12930 9109 c-128 -25 -278 -143 -318 -252 -32 -85 -38 -153 -18
-221 20 -68 76 -134 136 -161 46 -21 49 -28 18 -42 -13 -6 -47 -32 -76 -58
-89 -80 -104 -135 -52 -187 17 -17 30 -31 28 -32 -216 -132 -275 -207 -266
-340 3 -54 9 -72 34 -103 77 -94 163 -132 319 -140 191 -10 354 38 447 130 69
69 93 126 93 218 0 67 -4 81 -30 125 -42 67 -112 117 -225 161 -110 42 -207
88 -232 111 -25 21 -23 36 13 77 31 35 32 35 113 35 141 0 270 53 367 150 75
74 104 159 97 281 l-5 79 54 0 53 0 0 45 0 45 -69 0 c-60 0 -75 4 -126 34 -31
19 -79 39 -106 45 -58 13 -185 13 -249 0z m226 -82 c74 -81 48 -283 -56 -437
-111 -163 -300 -146 -326 28 -17 115 54 313 140 389 55 48 95 63 160 59 42 -3
55 -9 82 -39z m-347 -928 c119 -44 242 -102 268 -128 35 -33 55 -79 55 -126 0
-79 -49 -140 -152 -189 -60 -29 -72 -31 -170 -30 -204 2 -300 76 -300 232 0
71 14 112 56 161 38 45 122 111 142 111 8 0 54 -14 101 -31z"/>
<path d="M13745 8613 c-196 -31 -332 -120 -398 -261 -27 -57 -32 -81 -35 -162
-5 -118 22 -242 74 -340 58 -112 125 -166 422 -344 271 -162 367 -231 414
-293 39 -51 69 -136 75 -215 5 -59 3 -74 -21 -123 -38 -76 -90 -107 -196 -113
-59 -3 -85 0 -114 13 -76 36 -155 152 -201 295 -10 30 -21 58 -24 63 -4 4 -60
-17 -124 -47 l-116 -55 15 -53 c9 -29 36 -96 61 -148 58 -121 147 -214 250
-262 61 -29 79 -33 178 -36 337 -11 557 174 557 469 0 207 -85 378 -260 524
-72 61 -124 94 -407 261 -233 137 -275 173 -309 272 -50 140 -19 248 88 305
33 18 58 22 132 22 84 0 93 -2 128 -29 56 -42 91 -97 127 -197 29 -80 34 -89
53 -83 19 6 196 92 205 100 7 6 -33 113 -72 187 -56 109 -113 169 -203 213
-68 34 -82 37 -172 40 -53 1 -110 0 -127 -3z"/>
<path d="M14777 6579 c-125 -29 -248 -144 -322 -301 -62 -132 -66 -277 -10
-388 64 -127 207 -164 357 -92 70 33 114 72 164 147 37 54 42 75 19 75 -8 0
-15 -4 -15 -8 0 -5 -25 -36 -55 -69 -66 -73 -122 -103 -192 -103 -91 0 -145
68 -165 210 -9 67 -8 94 6 166 39 200 145 333 267 334 47 0 59 -14 48 -53 -5
-18 -9 -40 -9 -49 0 -30 37 -58 75 -58 47 0 75 29 75 78 0 43 -20 71 -70 101
-38 23 -104 26 -173 10z"/>
<path d="M13267 6437 c-73 -13 -116 -24 -114 -31 2 -6 17 -12 33 -14 54 -5 73
-12 78 -30 3 -10 -50 -218 -119 -462 -69 -245 -128 -464 -132 -487 -14 -102
55 -149 152 -104 65 30 196 184 175 205 -8 8 -18 2 -33 -19 -38 -52 -101 -117
-122 -125 -23 -9 -45 5 -45 30 0 13 257 952 284 1038 9 27 7 27 -157 -1z"/>
</g>
</svg>
