<?xml version="1.0" encoding="UTF-8"?>
<svg width="13in" height="18in" clip-rule="evenodd" fill-rule="evenodd" image-rendering="optimizeQuality" shape-rendering="geometricPrecision" text-rendering="geometricPrecision" version="1.1" viewBox="0 0 13000 18000" xmlns="http://www.w3.org/2000/svg">
 <defs>
  <style type="text/css">.fil0 {fill:black}</style>
 </defs>
 <path class="fil0" d="m14402 24362c10-2 68-46 91-72 46-55 20-162 25-178 4-15 29-6 32-7 9 198-114 260-148 257zm-134 61c-61 103-78 97-241 127-233 42-159 15-348 27-91 6-334-1-391-65l-130-154c36-1 89 15 127 24s92 12 134 18l400 6c28-4 109-16 133-16l85-5c44-7 138-29 178-29l144-60-91 127zm-865-177c17-18-3 0 18-11 41-21 75-26 124-29 36-3 43-8 42 27-65-44-127 15-184 13zm962 101c17-50 96-67-6-127 7-39 65-93 105-93 35 39 14 138-7 162-15 17-71 53-92 58zm-997-61c24 2 35-10 56-18l51-13c18 0 9-2 18 6-18 17-21 9-46 18-1 1-23 9-25 10-23 11-11-3-17 18l17 5c7-1 13-4 22-7 20-8 19-6 42-11 33-6 50-11 94-10-12 21-47 23-71 27-73 12-64 12-66 46 41-9 79-38 131-30 18 21 2 43 35 27 6-7 3 0 6-13 5-19 0-33-1-51l9-202c66 2 49 21 161-1 28-5 55-5 82-11 27-7 47-22 68-25 10 40 16 96 25 138 12 62 1 121 28 141 42-7 16-35 10-130l164 24c6-5 1 0 8-8l10-14c43 4 147 32 167 59-17 14-94 46-119 54-66 21-397 64-461 62-115-3-231 1-343-5-43-3-257-45-283-65l134-61c32-12 115-52 147-38-32 18-57 56-53 78zm958-86c5-55 77-127 167-126-4 2 1 2-12 5-38 7-37 2-88 41-15 12-23 29-33 43-29 41-14 35-34 37zm-746-1628c15 28 9 42 40 72 15 14 34 36 48 57 43 63 35 235-75 121-62-64-45-221-13-250zm33 1130c7 9 4-3 7 18 1 8 0 16 2 30l15 244c7 18 9 10 19 28 17 33 5 25 84 39-159 2-77-19-141-36-15 40-14 20-11 67 1 25 5 57-3 80l-11 6c-19-8-8-6-23-22-39-3-184 20-217 34-30 13-57 21-88 33-51 21-8 31-91 33l-29 40c-43-5-38-22-68-21-7 35 17 43 51 84 11 13 14 22 32 38 13 13 22 22 34 35 24 25 41 46 60 79 39 64 61 34 75 61-27 0-51-5-65 2 1 1 3 3 4 3l63 8c28 3 50 1 76 3 36 3 84 20 122 21l137 3c61-6 145-2 212-7 24-1 45-8 61-9l188-28c19-3 27-13 52-17 20-3 41-7 62-15 21-9 20-18 34-31 45-85 47-55 80-70 62-27 87-31 146-75 110-106 188-391-62-307-25 21-42 9-78 57-4 5-7 10-10 13-9 10 2 2-11 9-2 23-16 41-26 57-20 1-238-46-312-42-10-28-11-48-15-78-5-30-10-46-28-67-38 17-16 35-73 36 22-7 29-17 29-46-28 9-23 15-44 24l-104 7c-21-3-29-6-52-8-49-101-34-169-44-277-2-30-8-54-7-94 1-81-23-337-15-396 2 28 33-22 35 41 2 41-2 42 9 80 13 43 4 105 62 105 37-54 39-134 31-198-5-41 7-77 3-114-6-46-17-49-2-97l31-9v-23l-47-7c-49 109 22 372-33 406-10-19-8-47-15-69-15-41-9-34-9-79 0-48-8-111-11-165l-29 3c-13 28-6 64-11 98l-18 10c-14-19-7-54-10-92-1-21-20-103 29-132 50-29 109-34 126-82 4-11 6-47 18-47 7-23 1-27 20-26l3 26c3 42 41 248 18 276-24-9-26-31-35-44-3 6-3 2-4 13-6 59 31 54 48 63 5 103 17 195 20 303 3 117 19 279 26 395 2 35-1 71 0 107l26-2c6-9 10 14 5-41-3-41 3-52-4-117l-27-477c-1-50-11-99-11-156 0-44 6-89-3-112-6-15-5-15-7-34-4-29-6-51-7-81-1-41-15-22-16-64-3-80 0-23-9-71-7-37 6-49-26-57-21 20-2 13-18 40-8 14-15 15-25 34-16 30-16 57-38 78-24-5-37-16-43-41 32-57 41-22 39-117-1-9-2-30-3-39-14-83-77-85-102-159-29-84-20-31-31-121-40 4-28 20-33 61-13 87-45 134-27 242 11 71 60 92 78 109 55 52 31 12 53 40 11 15 5 15 19 28 12 12 11 7 21 19-14 7-76 27-83 33-51 44-32 135-31 188 1 43 0 68 8 105 10 46 27 395 23 424z"/>
 <path class="fil0" d="m11122 25147c8 5 6 1 15 7-60 17-33-7-63 20-16 15-33 24-57 22l-131-33c4-5 3-5 9-10 8-6-1 0 8-5 45-26 97 18 117 8-5-10-7-10-35-16-17-4-19-1-35-7 21-24 107-40 121-38l125 31c-28 26-39 9-90 9l16 12zm-171 108c36-23 49-3 103-36l53-23c19-5 32-15 48-22l155-55c28-15 16-13 56-18-10 13 4 1-14 14-21 14-76 29-89 34-38 14-49 31-94 45-20 6-39 6-57 12-25 10-18 12-50 18-43 8-50 33-111 31zm138-162c9-14 6-15 45-22 86-14 111-29 156-35 56-9 163-26 208 4-9 20-36 29-57 33 20-11 28-10 27-40-44 7-17 36-139 14 11 16 21 8 36 22-23 7-33 3-52-1l-28-7c-16-3 2-5-26-3l56 26c-47 18-97-18-127-4 17 20 35 1 63 29-20 16-96-11-162-16zm795-288c15-40 43-50 73-73 21 15 33 17 57 32l-22 23c-12-11-10-13-28-18-28-7-29 4-31 5l36 21c-19 23-31 16-85 10zm54-96c7-15 2-11 21-22 11-6 16-8 26-13-6 15-30 30-47 35zm373-111c-7-8-4-6-17-13-31-16-31 1-46-24 22-5 25 4 53 8 16 2 33 1 48 5 7 31 9 5-9 23-44 43-39 29-69 24l-13 16c-19 14-59 6-81 6 4 18 2 7 12 19 10 11 1-4 10 9-54 23-72-1-116-7 8 17 12 20 31 22 0 0 13-7 31 11-21 15-30 12-60 9-9 11 0 22-15 33-22 17-79-2-97-21 18-9 27-22 43-33 118-82 110-40 145-37 17 2 2 4 11-4-16-16-24-8-54-10 9-17-1-5 15-18 4-2 14-7 20-9 54-12-10 10 41 7-7-15-18-17 0-28 17-9 22-6 38-2 28 8 49 14 79 14zm113-47c-12 25-37 22-59 11s-44-13-57-22c6-5 14-9 21-14 0 0 78 8 95 25zm61 1c9-15 17-26 33-17l-33 17zm-13-30c-14 20-5 12-44 20l-5-9c-10-11-14 2-38-22 29-23-6-1 20-10 19-7 51 11 67 21zm-21-29c10-8 12-11 36-11 15-1 22 1 33 5-18 24-48 18-69 6zm-75-268c-4 24-109 87-138 107-5 3-9 7-14 10-12 7-45 25-56 30-25 12-38 18-63 30-32 16-124 86-152 110-32 28-65 61-87 94-47 74-113 118-157 197-14 24-38 65-44 92-3 17 0 28 7 38 25-7 18-9 28-35 8-23 3-27 22-30-1 16-6 77 26 39 11-14 25-46 37-63 13-19 71-84 101-94-18 66-55 17-60 84 29-5 19-15 44-14 14 0 21 6 3 24-19 18-48 25-61 48-48 3-11-12-45 5-4 27 7 10 33 26-8 25-17 24-42 33-16 6-16 9-28 15-27 12-19 2-23-1 21-32 37 2 52-29-5-4 9-13-21-6 0 0-18 9-21 10-17 5-35 2-52 4-17 27-7 10-8 34l-33 5-3-3-3-3c-8-8-5-5-13-10-12-7-19-11-32-15-7-2-11-2-16-5l-43-28c-22-11-43-17-68-25-24-7-57-11-76-19-25 12-15 15-52 14-178-7-243 36-333 50-27 5-27 4-53 13-34 11-59 23-90 38-26 12-61 27-84 43-40 27-148 45-149 105 28 2 32-12 49-25 30-23 69-30 101-49 16-9 26-20 43-27 26-11 27-11 51-24 53-30 103-38 161-55 48-13 69-23 123-30 115-13 244-30 352 17l21 15c-30-5-7-3-31-12-94-34-285 5-375 30-74 20-160 56-234 76-80 21-132 69-204 103-97 45-39 12-87 65-6-5-9-7-15-10-17-10-20-18-34-36l-122-151c-53-60-117-125-180-180-48-42-89-96-136-137-13-11-9-11-25-22l-46-41c-9-9-15-12-25-22-15-16-23-30-42-45-37-28-69-71-115-69 8 18 29 36 47 49 55 42 103 102 138 130 13 10 39 29 51 42l44 43c18 19 31 31 46 48 38 43 77 65 95 84 9 9 15 16 23 26 4 5 5 7 9 12l55 56c23 18 82 97 102 125l56 71c52 66 37 59 77 40 18-9 12 0 26-14 42-43 31-20 106-63l52-30c119-61 123-52 245-93l131-37c90-19 196-47 295-25 26 6 47 4 74 13 31 11 30 26 53 21 0-18-22-33-37-40 26-1 75 25 85 50-81 64-83 55-98 2-4-16-5-12-8-17-19-14-101-17-125-10l-10 7c-12 6-27 2-42 2-64 4-269 53-337 81l-150 58c-68 28-129 50-193 86-20 11-22 18-40 30-21 15-29 10-32 42 44-8 54-40 97-58 51-22 99-49 154-69 37-13 19-11 49 1 36 13 78 13 114 31l-21 7c-24 5-47 2-67-3 8 18 11 8 22 25-40 33-121-4-152-16 7 13 22 18 37 24l45 23c-19-1-42-1-60-3l-36-7c-1 0-3 2-4 1 0-1-2 1-3 1 11 19-5 8 24 10 11 1 3-1 17 2 1 0 7 4 8 5-7 6 8 3-15 10-17 6-35-1-53-1-6 12-4 19-22 22-29 8-26 6-53 20-48 24-89 3-103 44l-10 58h40c22-23 17-22 54-29l176-55c28-13 86-39 112-46 95-25 144-46 235-79 70-25 90-48 105-52 57-17 120-37 173-65 12-6 17-7 28-12l22-12c1-2 3-2 5-3 19 86 30 48 92 22 60-26 30-17 64-34 14-8 28-9 45-20 32-20 70-22 94-38l78-50v-27c-19-17-16-4-23-32 84-29 33-12 95-44 62-31 137-53 190-84 5-3 22-12 23-12 58-30 37-28 58-39 13-7 36-11 52-20 7-4 14-8 22-12l47-23c25-10 46-29 62-37 41-21 154-62 174-99-8-6-6-5-18-8-10-3 1 5-15-4 16-18 35-17 54-41l-6-26c-28-3-22 7-44 22-43-20-48-31-132 0l-285 122c-13 8-42 26-52 28 15-27 82-54 106-66 49-25 119-99 223-114 28-3 119-8 113-48-21-1-33 9-54 15-58 14-38-16-174 51l-234 144c-23 21-86 41-137 90-74 72-35 1-122 105-11 13-20 28-32 38 10-55 21-72 50-101l147-132c23-20 33-18 56-38 16-14 26-17 44-26l95-55c43-27 36-27 91-56l99-51c76-45 88-10 106-41-26-41-122 23-142 34-45 26-68 33-127 70-22 14-40 22-63 37-46 30-85 43-98 52l-84 54c-13 16-13 21-32 30 1-23-13-4 31-31 21-41 73-70 108-99 93-74 57-36 125-79 50-31 85-47 127-76 15-9 14-13 29-24 13-9 21-11 34-18 26-15 26-35 43-52-3-21 8-5-6-14l-16 5z"/>
 <path class="fil0" d="m9547 24299c24 12 10 8 23 35 7 15 14 22 22 40-37-12-52-35-45-75zm-294-1057c-16 38 3 72 34 95 78 55 131 56 222 87 35 11 77 44 110 44-4-25-13-24-35-33-49-20-96-48-151-64-42-11-174-61-159-118 35-1 152 51 192 68 12 5 22 8 36 11 35 8 24-1 31-9-36-13-66-19-104-42-19-11-83-39-103-47-62-23-162-53-161-135 29 5 56 20 80 31l78 31c27 10 53 20 80 30 22 7 58 46 71 11-15-12-7-5-28-12-13-5-17-7-27-13-24-14-33-12-57-26-18-11-37-22-56-24s3 4-19-10l-63-26c-12-5-16-5-28-12-9-5-14-10-25-16-9-5-18-7-28-13-36-23-66-52-79-93 32 7 53 24 78 36l77 40c13 6 24 11 36 16l125 47c-1-32-23-26-46-38-17-9-38-22-59-30-11-4-20-6-29-11l-89-50c-40-20-82-43-109-71-14-15-64-86-51-115 24 25 44 46 76 61 31 14 54 41 86 53 24 9 38 35 59 11-1-1-2-4-3-3l-160-107c-28-23-106-136-87-172l103 104c56 52 115 95 179 140 33 22 163 127 185 134 15 45 91 91 154 196l70 105c51 77 151 263 178 351 20 65 43 142 48 211 4 49-8 51-12 84 18 11 12 15 37 14l7-46 25 3c-4 25-16 53-33 61 0 0-16 5-18 5-10 3-24 7-39 6-47-2-44-7-46-40l-37-6c-3 28-10 17-4 54 25 20 91 35 129 19 18-7 42-11 53-24 7-9 8-14 11-30 2-10 0-5 3-14 7-26-1-5 8-17 17 31-1 6-1 42 8 5 7 8 19 8-19 32-74 35-110 44-46 11-91-4-134-13l-17-56c28-30 46-3 47-47-32-18-52 4-69 33-12 22-3 33-6 58-143 73-130 273-155 292-58 45 10 106 59 122 58 18 149 30 215 23 28 21 40 7 64 30 61 59 137 113 195 177 14 16 29 32 44 49 14 15 29 30 45 48l91 100c65 66 133 159 176 202l89 97c18 21 26 52 49 32 9-13 2-21-5-29l-240-271c-48-54-137-141-174-187-26-33-60-64-93-92-14-12-11-15-22-24l-75-66c-26-21-70-66-90-94 17-11 38-13 57-23 23-12 24-24 39-42 32-37 72-36 113-56 16-8 34-23 52-29 273-89 219-72 505-88 86-5 142 15 218 31 38 8 42 19 69 25-2-31-1-14-10-39 19-47 18-99 33-156 22-88 56-153 102-222l116-123c34-24 54-53 83-80 5-5 7-6 12-11l166-119c17-11 37-29 53-41 90-66 52-54 88-101 27 8 33 32 48 55l45 60c33 38 74 68 108 107l149 171c8 8 17 18 26 27 45 42 87 91 126 141l211 219c22 22 92 102 120 61-7-11-34-23-61-44-59-47-107-108-158-162-39-43-65-58-104-112-10-15-11-17-23-28l-50-55c-40-43-95-92-130-138-25-32-44-59-73-84l-137-137c-18-20-28-34-44-60-68-109-69-31-95 4-41 53-111 86-161 130-16 15-10 10-28 19-52 28-94 63-130 108-20 26-47 42-71 63l-6 5c-10 9-15 17-22 26-45 60-77 57-129 162-38 77-82 198-76 307-119-17-155-40-277-33-28 1-48 0-75-1-47-3-160 18-210 24-98 11-247 78-334 120-39 20-52 35-81 75-15 2-26-1-42 5-20 6-13 10-37 11-53 2-220-13-247-46-5-13-4-24-9-43-11-45 3-95 18-138 8-24 64-122 98-123 21-1 82 47 163 29 57-12 90-27 140-55 73 27 96 80 120 144 7 19 15 63 39 41 5-5 10 0 2-29-21-72-66-143-131-183-29-18-16-10-28-42-21-52-44-38-92-47-15-122-43-239-95-347-51-108-38-90-102-196l-58-93c-36-47-62-113-105-156l-55-56c-13-13-27-26-37-39-7-8-7-10-15-19l-61-56c-28-21-53-42-84-61l-89-62c-54-43-114-84-160-136-39-43-84-67-99-129-8-36 7-43-27-50-23 80 29 213 29 234 0 82 5 96 42 162 8 14 28 31 31 39 4 13-7 84 63 129 68 43 18 72 76 128 22 21 55 44 80 58z"/>
 <path class="fil0" d="m10243 25139c35 17 132 122 168 150 16 13 17 20 31 32l54 46c10 9 3 5 16 13l-78-45-63-65c-8-7-8-5-16-13l-80-83c-6-7-24-28-32-35zm-288-297c-19-11-49-33-57-54 26 5 46 31 57 54zm-53-54c-35-14-70-69-90-95 16 19 33 26 48 43 5 6 13 20 19 26 20 21 8-4 23 26zm113 77c-8-9-16-20-24-28l-223-226c-26-18-25 3-39-12-12-14 8-16-15-38-34 54 26 95 56 130l102 113c52 59 68 57 108 107l211 219c55 56 117 136 189 189 19 14 10 11 25 28 27 28 44 27 62 43 32 28 22 33 63 29 3-25-2-20-1-36 1-25 15-36-25-54-27-12-54-44-83-68-9-8-18-18-26-26l-380-370z"/>
 <path class="fil0" d="m9427 23458c-65-45-37-68-73-76-21 28 29 83 54 101 33 24 19 7 36 45 11 25 12 34 30 52 25 26 20 23 49 39 46 25-2 79 114 131-16 15-11 5-27 11 23 17 43 25 64 44 11 10 19 13 32 26 28 29 38 52 79 84 28 21 27 57 56 44 14-13-10-34-31-58-19-22-33-27-51-48-35-42-58-72-103-91 35 3 57 14 86 27 81 33 30 32 76 39-17-77-141-78-198-120-15-12-40-39-39-61 28 2 95 29 116 41 26 14 87 55 109 56-6-18-15-26-37-40-39-23-96-59-139-70-69-18-128-50-161-122 51 4-1 1 69 23 129 40 152 82 180 91 7-30-31-42-54-56-16-9-6-5-19-16-37-30-153-50-218-96z"/>
 <path class="fil0" d="m10986 24267c-33-30-25-31-49-30-12 33 15 38 32 52l502 545c9 9 15 14 24 22 12 10 12 9 24 17 38 29 53 107 83 74 22-22-16-42-25-50-67-56-23-39-65-70-9-7-13-10-21-19-57-66-18-33-81-94-22-21-59-77-123-138-68-65-42-46-84-90-14-15-30-24-46-41-55-60-110-123-171-178z"/>
 <path class="fil0" d="m9919 24664c-64-43-69-70-104-73 5 47 93 89 142 134l142 125c72 59 186 176 237 253 6 9 6 13 14 26l78 101c66 75 58 84 98 78 1-30-19-41-36-57-30-28-134-161-159-202-47-75-132-145-198-204l-165-142c-19-15-34-29-49-39z"/>
 <path class="fil0" d="m14010 24506c26-4 54 1 74-8-6-18 9-5-14-14-15-7-43 0-58 0-75 3-102 23-240 22-16 25-16 12-17 32 35 7 107 4 145 3 133-5 88 1 110-35z"/>
 <path class="fil0" d="m12518 24339c-21-25-35-46-53-67 12-7 11-2 18-19l-24-22c-34 1-70 5-38 42l121 124c15 16 8 14 27 21-2-39-30-54-51-79z"/>
 <path class="fil0" d="m13729 24464c1 1 4 0 4 2l15 3c27 1 11-7 70-1l203 2c60-5 86-4 90-42-86 21-63 14-137 23-26 2-25-5-50-3-63 6-12 9-93 6l-83-1c-27 5-8-4-19 11z"/>
 <path class="fil0" d="m11288 23721c22-7 2 2 37-28 13-12 12-18 28-30l147-98c20-12 63-31 72-49-3-2-1-9-22-1l-60 35c-46 29-185 113-202 171z"/>
 <path class="fil0" d="m10607 24354c5 3 4 8 29 6 143-14 148 3 224 0-25-46-153-24-194-19-11 1-21 1-32 3 0 0-14 2-14 3-12 3-6 1-13 7z"/>
 <path class="fil0" d="m9715 24140c5 9 163 47 177-13-34-6-66 6-104 3-46-4-94-24-73 10z"/>
 <path class="fil0" d="m11416 24134c10-14 15-26 25-40 106-141 250-156 267-183-28-1-41 3-58 13-19 11-29 11-45 19-61 33-105 66-151 117-10 12-44 60-38 74z"/>
 <path class="fil0" d="m13661 22835c29-50-19-144-64-149-1 35 25 39 40 76s-4 5-3 37c2 27 8 30 27 36z"/>
 <path class="fil0" d="m9889 24222c-118 11-121-21-157-13-2 36 32 35 68 39 88 9 84-3 89-26z"/>
 <path class="fil0" d="m9793 24174c-27-1-44-9-71-15 3 29 4 35 78 41 34 2 83 18 78-24-16-4-63-1-85-2z"/>
 <path class="fil0" d="m10568 24261c14 11 12 2 28 1l96-4c27 0 117 14 131 8-18-30-136-25-169-24l-74 13c-14 3-4 0-12 6z"/>
 <path class="fil0" d="m9736 24081c2 25 4 23 27 29 25 6 73 7 98-2 25-10 20-8 27-30-34 5-37 13-76 8-21-2-51-7-76-5z"/>
 <path class="fil0" d="m11244 23910c20-2 13-6 25-24 18-29 47-65 74-82 22-15 37-34 58-48 25-16 49-12 58-43-40 6-141 83-177 140-15 24-26 24-38 57z"/>
 <path class="fil0" d="m11527 24287c25-46 48-83 90-116 33-27 112-73 118-89-22 3-27 10-43 19l-29 17c-29 23-160 131-136 169z"/>
 <path class="fil0" d="m10555 24609c29-15 110-38 146-40 44-2 43-11 81-14 24-1 63 2 81-10-16-8-160 1-197 27-30-7-41-1-65 6-31 8-43 3-46 31z"/>
 <path class="fil0" d="m10404 24516c8 5-9 7 14 3 22-4 72-45 225-60 30-3 26-9 31-15-25-7-177 30-182 32-35 16-77 24-88 40z"/>
 <path class="fil0" d="m9805 24272c-67-11-39-26-69-13 2 28-3 17 27 27 25 8 93 26 114 9-4-14 9-3-12-12l-60-11z"/>
 <path class="fil0" d="m14045 24224c-24-5-17-7-30 7 10 9-2 13 30 17 15 2 23 2 36 5 23 6 49 20 68 8-6-23-6-16-33-20-17-2-22-7-35-11-19-7-18-2-36-6z"/>
 <path class="fil0" d="m13970 24428c30 5 127-14 136-19 12-8 5-1 8-15-25-15-49 0-72 9-17 6-45 5-72 25z"/>
 <path class="fil0" d="m10633 24702c21 12 55-15 106-26 47-9-8-5 66-11 24-2 39-2 53-15-16-7-6-3-27 2-11 3-18 2-30 5-22 5 4 6-30 7-57 0-26-1-94 14-27 6-39 4-44 24z"/>
 <path class="fil0" d="m11363 23935c21-11 20-17 37-33 14-13 24-20 39-32 9-7 60-34 75-54-27 4-66 33-88 47-23 16-56 49-63 72z"/>
 <path class="fil0" d="m10866 24459c1-1 3 0 4-1-5-6-2-7-17-12l-117-9c-18 0-5-1-19 3l-13 5c-1-2-3 1-4 2 22 15 19 0 88 6 28 2 43 11 74 8 1-1 4 0 4-2z"/>
 <path class="fil0" d="m14076 24281c-27-5-27-10-41 9 14 19 61 24 80 17-3-24-12-21-39-26z"/>
 <path class="fil0" d="m11300 24119c11-13 0-80 41-143 10-14 18-12 20-33-36 15-52 86-59 125-3 15-15 35-2 51z"/>
 <path class="fil0" d="m11736 24383c-35 14-65 81-81 115l81-115z"/>
 <path class="fil0" d="m10509 24371c10 8-20 10 22 5 15-2 48-8 63-17-22-10-21 1-40 5-20 4-24-4-45 7z"/>
 <path class="fil0" d="m13886 24435c3 2-5 4 11 4 6 0 47 0 60-10-18-12-63 0-71 6z"/>
 <path class="fil0" d="m9780 24316c12 17 0 12 31 15 16 2 26 7 33-8l-64-7z"/>
 <path class="fil0" d="m10429 24389c20 14 47 0 57-15l-57 15z"/>
 <path class="fil0" d="m13686 24458c6 9-2 7 11 10 20 5 21-3 23-4-16-6-22-13-34-6z"/>
 <path class="fil0" d="m12029 24702c4 6 2 10 16 11 29 4 10-1 16-5-11-6-21-12-32-6z"/>
 <path class="fil0" d="m9808 24499c11 13 8 13 18 0-19-12-10-6-18 0z"/>
 <path class="fil0" d="m10492 24377c-2 14 6 4 8-1 7-17-8-3-8 1z"/>
 <path class="fil0" d="m11056 25162c1 12-6 1 6 2h2l1-1c2-8-10-8-9-1z"/>
</svg>
